<svg
  xmlns="http://www.w3.org/2000/svg"
  width="512"
  height="512"
  viewBox="0 0 512 512"
>
  <path
    transform="matrix(15.464 0 0 15.464 -3046.6 -3607.7)"
    d="m215.89 255.61q-0.59733 1.7067-1.0667 3.6693-0.46934 1.9627-0.72534 3.7973-0.21333 1.8773-0.21333 3.328h-3.968q0-1.1947 0.256-2.9867 0.256-1.792 0.68266-3.7973 0.46934-1.9627 1.0667-3.712l-8.6613-22.613h3.8827l4.4373 11.989q0.42666 1.1093 0.85333 2.4747 0.42667 1.3653 0.768 2.6027 0.384 1.2373 0.46934 2.0053h0.17066q0.128-0.68267 0.46934-1.9627 0.34133-1.28 0.768-2.6453 0.42666-1.3653 0.72533-2.304l4.224-12.16h3.84z"
    fill="black"
  />
</svg>
