<svg
  xmlns="http://www.w3.org/2000/svg"
  width="512"
  height="512"
  viewBox="0 0 512 512"
>
  <rect width="512" height="512" fill="white" />
  <path
    transform="matrix(15.464 0 0 15.464 -849.69 -1746.1)"
    d="m72.664 132.35q-0.29867 0.85333-0.53333 1.8347t-0.36267 1.8987q-0.10667 0.93867-0.10667 1.664h-1.984q0-0.59733 0.128-1.4933 0.128-0.896 0.34133-1.8987 0.23467-0.98134 0.53333-1.856l-4.3307-11.307h1.9413l2.2187 5.9947q0.21333 0.55466 0.42667 1.2373 0.21333 0.68266 0.384 1.3013 0.192 0.61867 0.23467 1.0027h0.08533q0.064-0.34134 0.23467-0.98134 0.17067-0.64 0.384-1.3227 0.21333-0.68267 0.36267-1.152l2.112-6.08h1.92z"
    fill="black"
  />
</svg>
